<svg xmlns="http://www.w3.org/2000/svg" viewBox="0 0 6000 4000"><path fill="#bde9ff" d="M4980.91,1925.84H1255.42c44.21-164.61,156.65-170.48,287.92-228.69,28.48-12.64,57.85-27.74,87.61-47.45l2.29-1.52c50.2-41.27,81-97.19,104.71-158.09s40.2-126.53,61.85-187.67q13.64-38.51,30.68-75.2c46.07-99.38,110.09-188.59,187.09-266,213.7-214.7,527.33-338.14,834.36-334.54,735.1,8,1059.38,493.21,1516,911.17,56.59,51.8,115.22,102.58,176.92,151.28,142.1,85,308.83,129.65,435.58,236.21Z"/><path fill="#6fc0fd" d="M4980.91,1925.84H3270.76c58.57-56.54,277.72-247.31,540.56-217.9,149-170.78,373.25-191,556.57-170,56.59,51.8,115.22,102.58,176.92,151.28,142.1,85,308.83,129.65,435.58,236.21Z"/><path fill="#eef6fd" d="M2409.69,1925.84l-630-10.13-236.3-218.56c28.48-12.64,57.85-27.74,87.61-47.45l2.29-1.52c50.2-41.27,81-97.19,104.71-158.09,79.88,25.45,205.11,90.36,288,254.8C2228.75,1744.89,2409.69,1925.84,2409.69,1925.84Z"/><path fill="#6abefd" d="M2370.14,1915.71l-5.52,10.13H1255.42c53.8-200.33,208.66-165.56,375.53-276.14,115,20.75,246.59,76.17,331.84,211.72C2288.88,1861.42,2370.14,1915.71,2370.14,1915.71Z"/><path fill="#bfda4e" d="M4229.91,1925.83H1255.42a526.79,526.79,0,0,0-13.63,72.28,216.7,216.7,0,0,1-14.84,44.63H4097.2Z"/><path fill="#93c74b" d="M4097.2,2042.75l-233,205.31H1042.71c.84-1.11,1.7-2.2,2.56-3.3,6.62-8.43,13.67-16.49,21-24.3,55-58.5,126.32-102.59,160.67-177.71Z"/><path fill="#76ae28" d="M2848.1 2227.11s93.88-19 135.58-5.08 118.69-5.09 175.36-5.09 180.72 10.18 254.5 10.18S3653 2216.94 3653 2216.94l229.63 14.85-18.46 16.27H2826.25zM1989.22 2232.85l-11.91 11.91h-932c6.62-8.43 13.67-16.49 21-24.3 43 1.29 111 4.07 131.66 9.06 31 7.49 93 0 128.31 0s226.7-8.79 264.12-3.33 84.21 6.66 100.39 6.66 187.26-6.66 210.78-6.66S1989.22 2232.85 1989.22 2232.85z"/><path fill="#bfda4e" d="M3864.15,2248.06,3534,2538.91H984.8c-.15-1.19-.29-2.38-.43-3.57a516.08,516.08,0,0,1-3.58-55.26,503.78,503.78,0,0,1,32.66-183.82,249.53,249.53,0,0,1,29.26-48.2Z"/><path fill="#76ae28" d="M2800.86 2524.65s109-39 165.18-22.69 73.24 10.92 101 10.92 235.1-1.57 250.68-1.57 244.5 2.7 244.5 2.7L3534 2538.9 2800.86 2534zM1858.77 2535.34H984.37a516.08 516.08 0 01-3.58-55.26c19.53-2.44 44.29-2.87 73.86 1.8 81.27 12.83 130.46 12.83 160.4 12.83s81.26 18.23 119.76 18.23 117.62 9.57 171.09 9.57 204.18-35.28 235.25-27.8 102.65 18.23 102.65 18.23zM3190.89 2841.16l-68 59.89H1164c-.54-.58-1.07-1.17-1.6-1.75q-10.9-11.87-21.28-24.11-3.62-4.26-7.16-8.57-10.34-12.54-20.12-25.46z"/><path fill="#93c74b" d="M3122.92 2901.05l-244.58 215.46c-171.92-22.7-344.5-34.49-516.67-21-233.17 17.54-464.58 94.17-697.24 67.45-178.34-18-360.57-114.7-492-252.94q-4.25-4.46-8.4-9zM984.8 2538.9c13.57 108.3 60.56 211.74 129.08 302.26h2077L3534 2538.9z"/><path fill="#d1d6da" d="M4229.91,1925.83,2878.34,3116.51c46.37,6.12,92.69,13,138.95,20.47L4261.92,1925.83Z"/><path fill="#523418" d="M4261.92,1925.83,3017.29,3137c87.18,14,174.12,29.8,260.68,45.55q34.07,6.18,68.22,12.33L4398,1925.83Z"/><path fill="#33210f" d="M4398,1925.83l-1051.81,1269c166.11,29.83,333.81,57.84,502.22,70.49l784.71-1339.52Z"/><path fill="#523418" d="M4633.12,1925.83,3848.41,3265.35c117.29,8.82,234.94,10.18,352.63-.49a1479,1479,0,0,0,235.35-40.35L4873,1925.83Z"/><path fill="#33210f" d="M4980.91,1925.83H4873L4436.39,3224.51c167.24-43.08,326.54-117.28,458.82-228L5079,2035.33A530.58,530.58,0,0,0,4980.91,1925.83Z"/><path fill="#523418" d="M5079,2035.33l-183.76,961.2q16.74-14,32.89-28.8a0,0,0,0,0,0,0,860.74,860.74,0,0,0,136.15-159.58C5214.42,2580,5227.65,2255.9,5079,2035.33Z"/><path fill="#59440b" d="M2530.43,1561.22s-13.26,49.07,120.76,49.07,379.25,125.47,404.91,75.57S2769.53,1480.8,2654,1490.66,2530.43,1561.22,2530.43,1561.22Z"/><path d="M3173.31 1769.22s10.76 73-120 82.84C3062.13 1761.75 3173.31 1769.22 3173.31 1769.22zM2663.6 1744.41s92.83-33.86 134.81-58.1 80.36-97 80.36-97L2745 1566.72s-64.37 59-104.27 92.36-181.05 80.27-181.05 80.27S2626.89 1746.83 2663.6 1744.41zM3044.27 1807.12s-99.8 143-106.93 231.35-104.08 99.45-104.08 99.45l-53.45-276.51 171.54-42.51z"/><path fill="#fde81d" d="M2809.81,2516.09q1.46-7.12,2.86-14.13c.63-3.16,1.26-6.31,1.87-9.43C2873.1,2196,2865,2046.6,2865,2046.6l-216.94,32.58s-122.66,353.73-71.52,549.57l69.09,57.51,141.84-135.11,31.37-29.88C2814.33,2519.6,2811.23,2517.88,2809.81,2516.09Z"/><path fill="#998a00" d="M2818.87,2522.56l-35.31,31.23c-31.18,11.39-118.38,49.53-118.38,49.53l31-78.72s71.15-27.33,117.81-32.07c-.69,3.26-1.4,6.55-2.11,9.85q-1.59,7.32-3.22,14.77C2810.27,2519,2813.76,2520.82,2818.87,2522.56Z"/><path fill="#f8877f" d="M2852.38,2536.9c-11.57-1.87-20.69-3.88-26.56-6L2676.7,2672.92a96.9,96.9,0,0,0,20.14,16.68c9.95,5.89,22.11,10.7,36,14.56,134.79,37.6,522.55-68,522.55-68l-10.91-99.25S2942.28,2551.44,2852.38,2536.9Z"/><path fill="#998a00" d="M2795.53,2206l-200.08,438.48,33.51,27.89c19.48-32.38,45.67-75.51,57.45-93.18,20-29.94,124.75-260.55,124.75-260.55l47.06-168.24Z"/><path fill="#fde81d" d="M2826.25,2250.18s-47,165-114.46,242.58c-97.46,112.12-158.36,286.44-185.54,378.4-3.05,10.31-5.67,19.58-7.88,27.61-5.87,21.38-8.76,34-8.76,34-83.1,13.37-191.56-3.76-218.84-65.85l28.69-27,21.77-20.53,218.1-205.6S2776.35,2238.77,2826.25,2250.18Z"/><path fill="#fffad2" d="M2526.25,2871.16c-3.05,10.31-5.67,19.58-7.88,27.61-72.27-2.29-156-38.07-198.91-58.9-17.87-8.67-28.69-14.75-28.69-14.75a81.2,81.2,0,0,1,14.49-20.55q18.75,8,36,14.77C2434.21,2856,2494.33,2867.61,2526.25,2871.16Z"/><path fill="#023240" d="M2381.45,2931.25c-5.33,48.85-12.52,107.44-19.78,164.25q-23.39,1.83-46.76,4.29c-217.3,22.95-433.4,88.14-650.48,63.16a751.6,751.6,0,0,1-140.52-30.13c8.16-40.81,18.44-88.5,31.36-144.24,29.41-126.84,68.36-216.53,106.5-279.51,70.42-116.25,138.11-141.52,138.11-141.52s586.75,196.33,590.17,253.32C2391,2835.86,2387.31,2877.7,2381.45,2931.25Z"/><path fill="#021a20" d="M2381.45,2931.25c-11.22,1.41-24.13,3.38-38.29,6.15C2294,2947,2239.44,2923,2239.44,2923s-34.22,55.06-107.66,112.26c-89.83-21.09-384.74-256.89-470-326.17,70.42-116.25,138.11-141.52,138.11-141.52s586.75,196.33,590.17,253.32C2391,2835.86,2387.31,2877.7,2381.45,2931.25Z"/><path fill="#ff6a36" d="M2922.37,2356.41a14.37,14.37,0,0,1-.87,1.57,27.27,27.27,0,0,1-7.53,7.58c-7.24,5.23-18,9.71-30.07,13.51-3.12,1-6.34,1.91-9.61,2.8-11.85,3.22-24.44,5.86-36.1,8-3.38.61-6.68,1.17-9.86,1.69-20.26,3.31-35.69,4.82-35.69,4.82,2.13-66.22,4.48-132.95,5.28-196.16.33-26.42.39-52.22,0-77.11-1-76.23-5.85-144-18.15-194.72l21-33.39,4.47-7.11,5.56-8.82c7,12.89,15.74,36.32,25.15,66.12,5.43,17.17,11.1,36.45,16.82,57.06C2891.07,2139.7,2932,2336.19,2922.37,2356.41Z"/><path fill="#ffc3af" d="M2838.19 2389.82c-3.38.61-6.68 1.17-9.86 1.69-4.52-27.41-10.11-61.36-17-103.43-5-30.16-9.41-59.59-13.37-87.91.33-26.42.39-52.22 0-77.11 6 50 13.62 105.31 23.19 163.39C2828.09 2328.49 2833.68 2362.43 2838.19 2389.82zM2883.9 2379.07c-3.12 1-6.34 1.91-9.61 2.8-3.8-11.52-7.82-24.35-12.07-38.65-4.75-16-9.26-35-13.54-56.16s-8.3-44.36-12.08-68.66c-7.56-48.58-14.11-101.44-19.48-150.35s-9.56-93.85-12.41-126.58c-1.89-21.65-3.19-38-3.85-46.52l4.47-7.11 5-.36.12 1.61c.08 1.06.2 2.64.36 4.69.31 4.12.79 10.14 1.41 17.79 1.26 15.29 3.11 37.06 5.52 63 4.81 51.84 11.85 120.25 20.71 186.5 5.91 44.17 12.64 87.38 20 124 4.23 20.94 8.68 39.74 13.32 55.3C2876.07 2354.72 2880.1 2367.57 2883.9 2379.07zM2921.5 2358a27.27 27.27 0 01-7.53 7.58l-1.93-4.22c-14.62-32.24-31-75.36-38.08-119.3-3.49-21.72-7.87-53.53-12.5-89.06s-9.49-74.78-13.92-111.32-8.43-70.38-11.33-95.08c-.06-.48-.11-1-.17-1.44 5.43 17.17 11.1 36.45 16.82 57.06 5.49 45.93 12.23 101.17 18.52 149.49 4.62 35.48 9 67.24 12.45 88.77 6.71 41.9 22.41 83.7 36.64 115.25C2920.81 2356.47 2921.16 2357.23 2921.5 2358z"/><path fill="#028479" d="M1690.75,2639.79s129.81-50.19,239.63-223.18c160.2-252.35,341.94-658.68,546.39-663.26,344.61-7.71,349.47,236.64,323.73,533.93-12.73,147-340.78,457.89-340.78,457.89l-73.48,139.59C2096.39,2868.05,1917.73,2761.63,1690.75,2639.79Z"/><path fill="#f8877f" d="M3242.65,1502.58c-51.13-75.32-200.85-240-395.73-63.1-58.88,53.46-85,170.48-124.51,219-14.27,17.54-65,67.28-65,67.28a64,64,0,0,0-15.77,16.59c-9.7,15.1,1.16,41,3.95,57,6.91,39.8,8.75,86.33,33,120.31a129.22,129.22,0,0,0,31.78,30.81c4,2.79,36,24.06,39.6,20.89a89,89,0,0,0,7.66-7.48l68.59-69.35s60.7,64.67,173.76,7S3293.78,1577.9,3242.65,1502.58Z"/><path fill="#fde81d" d="M2378.44,2706c-16.27,18.3-31.6,35.73-45.54,52.2-27.76,32.84-50,61.86-62.8,86.33a649.87,649.87,0,0,1-49.13,79.95c-8.45,11.64-16.53,21.79-24.07,30.57-32.07,37.37-54.43,50.28-54.43,50.28s-496.85-363.1-496.85-394.79c31.57-25,59.51-48.26,84.36-70q16.2-14.17,30.68-27.53c130.9-120.58,162.37-192.14,200.13-256.33,47-79.84,322.56-633.91,696.61-530.82,0,0,15.25,183,37.3,487.07C2708.35,2401.17,2495.29,2574.5,2378.44,2706Z"/><circle cx="2564.1" cy="2479.02" r="13.33" fill="#021a20"/><path fill="#dbc600" d="M2426.93,1981.44s33.74,18.19,6.89,156.48-99.39,271.42-99.39,271.42,125.29,149.78,125.29,158.21-203.42-24.37-203.42-34.35-64.62-164-64.62-173.94S2426.93,1981.44,2426.93,1981.44Z"/><path fill="#998a00" d="M2378.44,2706c-16.27,18.3-31.6,35.73-45.54,52.2-40.6-16.11-80-33.05-102.9-46.27,0,0-46.87-23.29-55.79-32.2s23.17-88,23.17-88Z"/><path fill="#998a00" d="M2230,1922.63s-91.84,98.31-134.61,173.73-173.36,259.26-120,376.92c40,88.25,131.84,160.23,175.25,190.71,14.46,10.16,23.55,15.7,23.55,15.7l41.71-61Z"/><path d="M2662.7,1720.57s148.19,10.41,203.35-87.73c-65.72-50-97-60.59-97-60.59S2662.7,1674.62,2662.7,1720.57Z"/><path fill="#69a31a" d="M4736.36 2687.25c-.18 99-8.63 198-22.79 295.29q-4 2.72-8 5.42c-2 1.35-4 2.69-6 4 14.86-102.78 25.56-209.12 25.83-315 .38-145.68-19-290.47-74.29-423.92a45.29 45.29 0 0010.44-6.14c30.39 67.7 48.76 141.44 59.84 215.82C4731.88 2537.16 4736.5 2612.21 4736.36 2687.25zM4772.37 2746.77c-68.11 67.85-5.9 151 63.86 85.35C4904.35 2764.26 4842.14 2681.13 4772.37 2746.77zM4762.75 2593.43c-50.84 61.51 17.82 138 70.37 78.41C4884 2610.34 4815.3 2533.85 4762.75 2593.43zM4813.71 2392.15c-25.45-.91-48.8 19.49-62.86 42.47-19 28.91-14.45 70.79 24.28 64.44 21.79-3.71 43.23-22.72 54.5-44.47C4842.41 2432.32 4844.24 2393.18 4813.71 2392.15z"/><path fill="#69a31a" d="M4776.72 2246.9c-31.93-18.55-68 7.91-79.21 43-17.29 49.92 22.4 72.61 58.33 51.81C4781.49 2326.76 4808.66 2270.79 4776.72 2246.9zM4661.53 2246.93c28.29-21 21.89-72.44-5.94-91.87-30.11-23.52-67.78 1.51-71.91 40C4575.82 2244.53 4628.42 2273.21 4661.53 2246.93zM4667.35 2355.61c9.6-61.59-101.61-87-111.3-25.44S4657.66 2417.17 4667.35 2355.61zM4630.21 2523.32c15.81 11.58 38.5 16.22 56.26 10.14 23-6.42 34.53-33.35 17-55.15-20.22-25.49-58.1-34.86-83.76-16.9C4597.31 2477.77 4610.53 2510.81 4630.21 2523.32zM4672.56 2677.48c30.49 13.66 62.55-5.75 45.6-44.77-13.68-32.8-63.95-69.65-91.09-41-11.23 14.15-4 39.59 7.18 54.73C4643.3 2659.72 4658.62 2672.15 4672.56 2677.48zM4720.59 2799.73c-4.08-26-23.24-48.81-43.39-61.13-26.41-17.59-62.37-9.27-52.92 32.75 5.44 24 24.53 46.48 44.35 56.85C4692.29 2842.34 4726 2835 4720.59 2799.73zM4467.79 3216c-43.25 12.29-87.11 22.45-131.21 30.51q-10.18 1.88-20.39 3.59-37.45 6.32-75 10.62-20.07 2.31-40.14 4.13l-3.69-1.8c-79.5-202.31-211.94-655.15 44.41-955.95 23.74 121.2 76.56 334.92 129.9 542.33C4406 2983.06 4440.61 3114.06 4467.79 3216z"/><path fill="#bcd845" d="M4336.58,3246.52q-10.18,1.88-20.39,3.59c-9.56-19.49-19-40.13-28.16-61.85-12.72-30.21-24.76-62.48-35.66-96.47-5.5-17-10.54-34.44-15.42-52.21-2.34-8.91-4.72-17.91-6.92-27s-4.4-18.24-6.35-27.5c-4.15-18.47-7.55-36.87-10.74-55-3-18.19-5.76-36.15-7.86-53.86-4.45-35.41-7-69.75-8.32-102.46a1210.1,1210.1,0,0,1,5.76-173.57,1019.94,1019.94,0,0,1,18.65-115.31c5.84-26.06,10.43-40.48,10.72-41.36-.18.91-3.13,15.74-6.49,42.1-3.47,27.2-7.41,66.69-9.15,115.56A1506.6,1506.6,0,0,0,4220,2772.4c2.57,32.1,6.12,65.69,11.22,100.32,2.43,17.31,5.44,34.86,8.57,52.65,3.33,17.75,6.76,35.74,10.81,53.83,1.91,9.08,4.09,18,6.15,27s4.36,17.71,6.55,26.47c4.58,17.47,9.24,34.65,14.28,51.38,10,33.54,20.78,65.52,32.07,95.65q6.12,16.35,12.4,31.93Q4329.25,3229.58,4336.58,3246.52Z"/><path fill="#588a16" d="M4708.58,3120.78a1219.77,1219.77,0,0,1-149.14,65.62q-13.68,5-27.47,9.65-29.7,10.07-59.87,18.74c-32.78-33.91-57.48-93.76-63.93-216.14-4-108.57,24.8-256.05,162.94-397.35C4701.68,2679.82,4717.32,2930.61,4708.58,3120.78Z"/><path fill="#c4dd5d" d="M4559.44,3186.4q-13.68,5-27.47,9.65a967.63,967.63,0,0,1-16.78-137.42c-5.93-132.67,13.38-272.91,67.7-393.21C4538.78,2831.1,4533.43,3014.31,4559.44,3186.4Z"/><path fill="#588a16" d="M5011.29,2788.53c-14.32,68.14-43.41,127.55-83.18,179.19a0,0,0,0,1,0,0c-60.15,55.47-127.78,103-200.37,142.78-14.28-153.27,100-488.53,282-565.44C5025.65,2589.13,5010.25,2750.82,5011.29,2788.53Z"/><path fill="#c4dd5d" d="M4994.19,2603.87c-87.54,126.63-131.53,297.37-171.54,448.08q-9.26,6.42-18.67,12.62C4829.43,2905.55,4875.91,2715.5,4994.19,2603.87Z"/><path fill="#69a31a" d="M3932.82 2810.85c-14.93-61.44-36.79-121.71-69.8-175.85a46.24 46.24 0 01-9.61 6.06c93.34 164.82 106.81 359.59 94.81 547.23l12.06-.29C3968 3061.64 3961.61 2934.1 3932.82 2810.85zM3960.28 3188c-.82 13.3-6.38 67.42-7.76 83.11q-5.89-.2-11.8-.43c2.72-28 6.51-66.76 7.51-82.39z"/><path fill="#69a31a" d="M3980 2916.89c-45 56.07 25.08 114.23 71.86 59.62C4096.89 2920.45 4026.77 2862.29 3980 2916.89zM3995 3048.92c-56.07 45-15.47 97.42 41.62 53.71C4092.7 3057.61 4052.09 3005.22 3995 3048.92zM3990.11 3142.08c-56.08 45-15.47 97.42 41.62 53.71C4087.8 3150.77 4047.19 3098.38 3990.11 3142.08zM4017 2743.52c-24.39 1.47-45.52 20.63-57.64 41.15-16.48 25.92-9.69 60.66 27 51.94 20.63-5 40-22.86 49.53-42.09C4046.79 2774.71 4046.26 2741.71 4017 2743.52zM3973.17 2624.88c-31.61-12.77-64.58 12.6-73.24 43-13.63 43.41 25.65 59 58.8 38.36C3982.39 2691.47 4005.11 2642.12 3973.17 2624.88zM3863 2635c25.83-20.09 16.72-62.71-11-76.57-30.16-17.1-64.73 7.21-66.44 39.89C3780.91 2640.5 3832.88 2660 3863 2635zM3874.91 2725.69c5.6-52.52-102.23-64.1-107.91-11.59S3869.24 2778.2 3874.91 2725.69zM3849.16 2869.68c15.79 8.33 37.77 10.23 54.4 3.57 21.65-7.4 31.07-31 13-47.76-20.82-19.62-57.59-24.17-81.08-6.84C3815.05 2834.34 3829.62 2860.9 3849.16 2869.68zM3898.64 2995.33c30 8.78 59.48-10.31 41-41.57-15-26.33-65.2-52.84-89.49-26.45-9.91 12.85-1.5 33.57 10.05 45.3C3869.62 2983 3885 2992.07 3898.64 2995.33zM3951.69 3093.69c-5.42-21.45-25.06-38.91-45.05-47.48-26.28-12.45-60.19-2.32-48.7 32.12 6.6 19.65 26.16 36.85 45.72 43.82C3927.11 3131.94 3958.89 3122.81 3951.69 3093.69zM3943.07 3179.12c-5.41-21.45-25.06-38.92-45.05-47.49-26.28-12.44-60.19-2.31-48.7 32.12 6.6 19.66 26.17 36.86 45.72 43.82C3918.49 3217.36 3950.27 3208.24 3943.07 3179.12z"/><path fill="#ffca39" d="M3385,1841.72c-72.77,27.26-381-32-528.88-152.16-212-172.18-325.72-117.81-325.72-117.81.82-30.86,12.4-52.81,30.76-67.89q2.22-1.83,4.58-3.52c21.82-15.71,51.79-23,84.33-24.65q4-.21,8.06-.3c32.86-.79,67.8,3.74,99.26,10.7l5.53,1.27c34.94,8.16,65,19.2,82.37,29,65.14,37,386.1,150.13,386.1,150.13s22.8,14.9,51.61,36.12c2.14,1.57,4.32,3.19,6.53,4.84,12.21,9.12,25.23,19.2,37.88,29.65q2.29,1.9,4.58,3.82c15.45,13,30.12,26.38,41.81,39.1,1.31,1.42,2.59,2.84,3.81,4.25C3400.33,1810.21,3409.24,1832.65,3385,1841.72Z"/><path fill="#ffca39" d="M3272.36,1505.69c-.08,1.09-.2,2.17-.36,3.25-.65,4.36-1.35,8.89-2.09,13.54-.26,1.67-.54,3.36-.81,5.06-1.4,8.52-2.95,17.4-4.64,26.39q-.48,2.53-1,5.09c-1.06,5.45-2.17,10.93-3.35,16.37-.36,1.72-.74,3.43-1.12,5.13-2,9-4.17,17.89-6.49,26.4q-.7,2.61-1.44,5.17c-10.28,36-23.52,64.12-40,65.11-31.06-11-78,5.72-129.7-10.13-121.07-37.09-268.74-114.52-302.58-153,0,0,22.8-29.33,51.1-63.18q1.62-2,3.28-3.91c5-6,10.2-12.08,15.42-18.15l3.31-3.84c5.31-6.11,10.64-12.17,15.91-18l3.38-3.74c5.61-6.18,11.12-12.11,16.42-17.62l3.49-3.59c6.15-6.27,12-11.91,17.27-16.64,1.29-1.15,2.55-2.25,3.77-3.28q2.64-2.23,5.05-4.1a151,151,0,0,1,15.21-10.27c1.48-.87,3-1.73,4.5-2.55a160.27,160.27,0,0,1,23.69-10.56c1.76-.63,3.55-1.23,5.34-1.79a163.78,163.78,0,0,1,31.23-6.61q3.53-.39,7.07-.63c25.35-1.69,51.48,2.67,75.56,14.71,27.16,13.58,77.09,39.22,119.3,69.55q4.2,3,8.29,6.09a304.11,304.11,0,0,1,35.15,30.45q2.52,2.6,4.84,5.19a135.38,135.38,0,0,1,13.88,18c1.05,1.65,2,3.29,2.94,4.94,4.87,8.8,7.78,17.59,8.17,26.23A41.67,41.67,0,0,1,3272.36,1505.69Z"/><path fill="#ea716e" d="M2826.24,1894.56c-7.31,4.58-29-46.3-29-87.44-23.44,61.11,8.08,108.59,8.08,108.59Z"/><ellipse cx="4596.26" cy="1324.24" fill="#bde9ff" rx="155.65" ry="202.73" transform="rotate(-65.07 4596.064 1324.297)"/><circle cx="4301.94" cy="1040.66" r="64.38" fill="#bde9ff"/><path fill="#fde81d" d="M2300,2432.84l9.3,6.94q-6.95,3.48-13.79,7.12h0c-27.22,14.5-53,31.12-75.83,52.68-34.65,31.35-61.11,68.14-77.18,110.93q-16.45-12.8-31.77-25.69c-28.94-24.37-54.34-48.89-74.43-73-149.7-179.65,215.9-632.3,215.9-632.3s83.71-5.13,138,17.47c44.12,18.37,69.53,100,69.53,117.24C2459.72,2052.73,2300,2432.84,2300,2432.84Z"/><path fill="#dbc600" d="M2309,2433.35c-27.22,14.5-66.58,44.67-89.37,66.23-34.65,31.35-61.11,68.14-77.18,110.93q-16.45-12.8-31.77-25.69c6.91-12.74,21.81-36.31,53.89-78.71C2209.72,2446.48,2282.55,2430.79,2309,2433.35Z"/><path fill="#f8877f" d="M2704.08,2770.46c-67.23-67.23-275.74-234.52-366.68-303.59a68.84,68.84,0,0,0-6.92,5.48c-34.19,33.27-56.38,71.16-85,110.91-7.39,10.16-16.64,17.56-23.11,28.65a187.69,187.69,0,0,0-12.1,29.83c168,111.54,422.88,225.17,422.88,225.17S2704.08,2790.49,2704.08,2770.46Z"/><path fill="#fde81d" d="M2270.65,2611.58c31-43,55-84,92-120a75.05,75.05,0,0,1,7.49-5.93c-27.69-21-49.31-37.24-60.86-45.88-32.28,16.19-63,34.64-89.63,59.81-34.65,31.34-61.12,68.14-77.19,110.93,28.12,21.84,58.58,43.42,90.09,64.34a202,202,0,0,1,13.1-32.27C2252.65,2630.58,2262.65,2622.58,2270.65,2611.58Z"/><path fill="#ff6a36" d="M2667.16,2466.87c-4.53,4.53-14.42,7.71-27.56,9.9-3.29.55-6.79,1-10.46,1.46-8.56,1-18,1.69-28,2.13-3.33.15-6.72.27-10.15.37-15.55.43-31.92.35-47.62,0q-5.1-.12-10.1-.27c-12.53-.37-24.4-.89-34.8-1.44q-5.42-.27-10.25-.56c-17.25-1-28.47-1.91-28.47-1.91s55.6-411.7,38.49-563.54,55.61-185,55.61-185,.9-.15,2.61-.4h0c1.34-.2,3.17-.46,5.47-.77,3-.4,6.68-.87,11.11-1.38l1.31-.15c3.66-.4,7.78-.83,12.3-1.25l7-.63q3.94-.33,8.21-.64l4.91-.34q4.89-.35,10.15-.63c4.88-.27,10-.51,15.3-.7,4.52-.17,9.2-.3,14-.4h0c3.75-.07,7.57-.12,11.49-.14l5,0c-11.71,6.76-12.08,30.35-10.51,123C2655.88,2060.89,2684.4,2449.64,2667.16,2466.87Z"/><path fill="#c00" d="M2788.94,1501.18s82.46,94.64,200.09,143.09,248.67,29.37,248.67,24,4.39-27.09,4.39-27.09-133.3,11.88-242.09-29.7c-121.35-46.38-189.11-137.56-189.11-137.56Z"/><path fill="#ffc3af" d="M2574.33,1725.32a76.18,76.18,0,0,0-6.24,5.43c-8.65,8.4-19.23,22.37-26.37,44.81-4.76,15-8,33.69-8,57,0,5.92.21,12.12.66,18.64,1.14,17.09,1.68,42,1.68,72.31,0,104-6.33,271.43-16.29,397.7-3.32,42.1-7,79.63-11.08,108.77-2.3,16.65-4.71,30.57-7.24,41.13-.69,2.87-1.38,5.49-2.1,7.87q-5.91-.27-11.18-.57c.86-2.62,1.76-5.82,2.63-9.5,1.29-5.36,2.56-11.76,3.83-19.07,2.51-14.61,4.94-32.82,7.24-53.68,4.63-41.74,8.75-94.15,12.2-150.12,6.9-112,11.09-238.27,11.09-322.53,0-30.18-.55-55-1.67-71.67q-.69-10.08-.68-19.28c0-36.31,7.53-62.55,17.14-81.15a108.58,108.58,0,0,1,16.46-23.83h0c1.34-.2,3.17-.46,5.47-.77,3-.4,6.68-.87,11.11-1.38Z"/><path fill="#ffc3af" d="M2601.82,1722.8q-4.26.32-8.21.64l-7,.63c-7.8,7.45-15.71,18.26-21.79,33.74-6.71,17-11.26,39.72-11.26,70q0,4.61.14,9.47c1.19,40.23,5.91,91.23,10.32,147.9s8.51,119,8.51,181.69c0,54.93-3.15,110.16-12,162.13-13.89,81.92-22.32,126.87-27.34,151.43q6,.15,12.16.27c5.08-25,13.46-69.86,27.1-150.27,8.93-52.63,12.09-108.31,12.09-163.56,0-63.08-4.13-125.62-8.53-182.36s-9.12-107.69-10.31-147.48c-.1-3.16-.13-6.23-.13-9.22,0-26.18,3.49-46.15,8.63-61.35a97,97,0,0,1,13.55-26.74,61.69,61.69,0,0,1,18.93-17.29Z"/><path fill="#ffc3af" d="M2632.18,1721.13c-.22.14-.44.3-.66.47-4.66,3.45-11.16,10.18-17.43,23.38-4.18,8.8-8.23,20.48-11.49,35.92-4.36,20.57-7.3,47.82-7.3,83.76,0,21.33,1,45.71,3.42,73.58,8.33,97.45,13.5,215.24,13.5,322,0,43-.84,84.23-2.65,121.62s-4.57,70.78-8.46,98.48c-3.33.15-6.72.27-10.15.37,1.92-13.39,3.58-28.28,5-44.38,4.34-49.6,6.28-110.76,6.28-176.09,0-106.46-5.16-224-13.46-321.17-2.41-28.11-3.46-52.78-3.46-74.43,0-41.05,3.77-71.25,9.28-93.57s12.78-36.77,19.83-46.16c.83-1.1,1.65-2.14,2.47-3.1C2621.76,1721.56,2626.87,1721.32,2632.18,1721.13Z"/><path fill="#ffc3af" d="M2639.29,2095.66c4.59,82.41,9.19,169.69,9.19,244.71,0,28.13-.65,54.54-2.19,78.35-1.41,21.73-3.56,41.28-6.69,58.05-3.29.55-6.79,1-10.46,1.46,2.22-11.1,4-23.71,5.35-37.58,2.84-28.81,4-63,4-100.28,0-74.62-4.58-161.77-9.18-244.15s-9.19-160-9.19-215.77c0-47.12,3.77-82.41,9.27-108.88,4.75-22.9,10.79-39.22,16.81-50.84h0c3.75-.07,7.57-.12,11.49-.14-7,11.82-14.72,31.05-20.23,61.89-4.4,24.59-7.36,56.56-7.35,98C2630.1,1935.71,2634.69,2013.27,2639.29,2095.66Z"/><path fill="#fde81d" d="M2854.52,2529.72c-24.09-4-40.16-8.49-44-13.45q1.42-7.21,2.81-14.31c-51.55,23.66-136.54,74-194.63,166.76,31.45,27,67.31,41.73,106.21,43.21C2765.11,2647.54,2824.23,2556,2854.52,2529.72Z"/><path fill="#ffefc7" d="M3252.52,1606.92q-.7,2.61-1.44,5.17c-16.67,1.67-40.56,3.38-68.49,3.38-49.2,0-110.93-5.29-167.91-25.55-60.15-21.41-109.76-60.75-144.38-94.71a528,528,0,0,1-40.11-44c-.09-.11-.17-.22-.26-.32q1.62-2,3.28-3.91l.87,1.08a523.5,523.5,0,0,0,39.72,43.63c34.29,33.65,83.41,72.54,142.55,93.57,56.16,20,117.4,25.27,166.24,25.26A684.79,684.79,0,0,0,3252.52,1606.92Z"/><path fill="#ffefc7" d="M3260.13,1575.39c-.36,1.72-.74,3.43-1.12,5.13-16.51,1.58-39.36,3.12-65.83,3.12-49.2,0-110.93-5.29-167.91-25.55-60.15-21.41-109.76-60.75-144.38-94.71-12.92-12.68-23.75-24.62-32.26-34.6l3.31-3.84c8.49,10,19.4,22.06,32.45,34.87,34.29,33.65,83.41,72.54,142.55,93.57,56.16,20,117.4,25.27,166.24,25.27C3220.32,1578.65,3243.64,1577,3260.13,1575.39Z"/><path fill="#ffefc7" d="M3264.46,1553.93q-.48,2.53-1,5.09c-14.53,1.08-32.16,1.92-51.79,1.92-49.19,0-110.93-5.29-167.91-25.55-60.15-21.41-109.75-60.75-144.37-94.71-12.57-12.34-23.16-24-31.56-33.78l3.38-3.74c8.39,9.82,19,21.53,31.68,33.95,34.29,33.65,83.41,72.54,142.55,93.57,56.16,20,117.4,25.27,166.23,25.26C3231.78,1555.94,3249.78,1555.05,3264.46,1553.93Z"/><path fill="#ffefc7" d="M3269.91,1522.48c-.26,1.67-.54,3.36-.81,5.06-13.52.91-29.38,1.58-46.82,1.58-49.19,0-110.93-5.3-167.9-25.56-60.16-21.41-109.76-60.75-144.38-94.71-8.34-8.19-15.82-16.07-22.35-23.31l3.49-3.59c6.53,7.24,14,15.12,22.36,23.33,34.29,33.65,83.41,72.54,142.55,93.57,56.16,20,117.4,25.27,166.23,25.27C3240.09,1524.12,3256.25,1523.42,3269.91,1522.48Z"/><path fill="#ffefc7" d="M3272.36,1505.69c-9.73.44-20.32.72-31.56.72-49.2,0-110.93-5.29-167.91-25.55-60.15-21.41-109.76-60.75-144.38-94.71-7.4-7.27-14.12-14.29-20.1-20.84,1.29-1.15,2.55-2.25,3.77-3.28,5.91,6.46,12.54,13.38,19.84,20.55,34.28,33.65,83.41,72.54,142.55,93.57,56.16,20,117.39,25.27,166.23,25.26,11.26,0,21.87-.28,31.6-.72A41.67,41.67,0,0,1,3272.36,1505.69Z"/><path fill="#ffefc7" d="M3264.23,1474.46q-6.26.12-12.84.13c-49.2,0-110.93-5.3-167.91-25.56-60.15-21.41-109.76-60.75-144.38-94.71q-3.43-3.37-6.66-6.66c1.48-.87,3-1.73,4.5-2.55q2.76,2.79,5.67,5.64c34.28,33.65,83.41,72.54,142.55,93.57,56.16,20,117.39,25.27,166.23,25.27,3.36,0,6.67,0,9.9-.07C3262.34,1471.17,3263.32,1472.81,3264.23,1474.46Z"/><path fill="#ffefc7" d="M3247.41,1451.51c-44.78-1.51-96.82-7.9-145.41-25.18-58.43-20.8-106.91-58.51-141.37-91.78,1.76-.63,3.55-1.23,5.34-1.79,34,32.5,81.29,68.8,137.7,88.86,46.1,16.4,95.62,22.9,138.9,24.7Q3245.09,1448.92,3247.41,1451.51Z"/><path fill="#ffefc7" d="M3207.42 1415.87c-31.15-3.7-63.7-10.3-94.83-21.37-45-16-84.06-42-115.39-68.35q3.53-.39 7.07-.63c30.33 24.93 67.58 49.19 110 64.27 27.75 9.87 56.74 16.16 84.87 20Q3203.33 1412.8 3207.42 1415.87zM3289.56 1707.49c-9.82.26-21.39.45-34.36.45-43.32 0-102.27-2.09-163.93-10.51s-126.06-23.17-180.29-48.6c-77.42-36.29-117.2-82.9-137.48-121.69a197.62 197.62 0 01-16.08-41.05l5.53 1.27a193.46 193.46 0 0015 37.47c19.82 37.85 58.65 83.58 135.18 119.48 53.52 25.1 117.48 39.79 178.83 48.17s120.1 10.46 163.26 10.46c10.2 0 19.54-.12 27.83-.29C3285.17 1704.22 3287.35 1705.84 3289.56 1707.49z"/><path fill="#ffefc7" d="M3332,1741c-30.17,9.54-64.29,13.72-100.42,13.72-61,0-127.83-11.93-191.13-30.42s-123.1-43.54-170.09-69.87c-31.33-17.56-57-35.68-74.23-52.92-64.19-64.19-120.88-107.55-146.05-125.78q4-.21,8.06-.3c27.36,20.13,81.13,62.15,141.53,122.54,16.74,16.75,42.07,34.69,73.13,52.1s67.87,34.29,107.6,49.06c79.47,29.55,170.67,50.6,251.18,50.59,34.51,0,67-3.86,95.84-12.54Q3329.73,1739,3332,1741Z"/><path fill="#ffefc7" d="M3377.64,1784.31a559.68,559.68,0,0,1-129.12,14.75c-94,0-184-22-260.82-52.63s-140.45-69.8-181.89-104.3c-51.79-43.13-117.6-79.61-171.67-105.72-29-14-54.66-25.06-72.95-32.55q2.22-1.83,4.58-3.52c17,7,39.71,16.83,65.33,29.06,55.22,26.37,123.9,63.93,177.91,108.89,40.94,34.09,104.21,73.08,180.54,103.49s165.72,52.28,259,52.28a555,555,0,0,0,125.31-14C3375.14,1781.48,3376.42,1782.9,3377.64,1784.31Z"/><path fill="#f8877f" d="M2813.58,2782l56.65-15.32-15.46-36.52-70.05-3.5-118.57,44.55-14.54,42.47,165-23.61A15.41,15.41,0,0,1,2813.58,2782Z"/><path fill="#023240" d="M2908.17,2957.72l-287.26-72.5c-6.41-1.61-17.13,12.71-19.6,10.13-3.83-4,3.5-25.32,10.38-29.23l315.17-179.18c14.58-8.29,40.86-10.68,58.46-5.29l307.08,94c12.41,3.8,14.9,25,7.66,31.33-1.86,1.62-4.35-11.09-7.5-9.62L2956.7,2954.17C2944.53,2959.86,2922.88,2961.43,2908.17,2957.72Z"/><path fill="#ffdfdb" d="M2904.14,2978.73l-287.26-72.5c-16.35-4.13-20.55-12.67-9.22-19.11l315.17-179.18c14.58-8.28,40.86-10.67,58.46-5.29l307.08,94c15.6,4.77,15.57,14.5.16,21.7l-335.86,156.84C2940.5,2980.86,2918.85,2982.44,2904.14,2978.73Z"/><path fill="#f8877f" d="M2984.67 2836.73c3.6-13.57-1.91-22.3-1.91-22.3s-123.93-11.09-146.55-14.3c-11.12-1.57-42.55-31.76-45.43-35.83l-139.17 49.39-37.4 44.63s105.09 62.25 144.77 72.78 183.85-32.53 196.07-39.63 13.48-17.1 13.48-17.1 21-2.68 31-8.53S3003.66 2850.44 2984.67 2836.73zM3244.47 2536.92s99.11-70.2 175.8-60.77l76.68 9.44c18.17 0 11.21 23.6 0 23.6 0 0-63.12 16.52-57.81 27.73s190 16.51 190 16.51 9.43 16.52 3 23c0 18.88-25.37 24.78-25.37 30.09-8.26 22.41-46.6 27.72-46.6 27.72-21.54 21.53-210 26.55-231.84 23s-60.76-24.78-81.41-20.65-24.78 4.13-24.78 4.13v-98.51S3235.53 2542.07 3244.47 2536.92z"/><path fill="#69a31a" d="M3568.65,2758.19c-27.09-55.12-60.51-107.65-103.21-152a44.76,44.76,0,0,1-7.84,7.78c126.14,139.85,179.52,327.1,207.12,511.73a61.78,61.78,0,0,1,10.89-6.09C3656.53,2994.86,3623.3,2871.89,3568.65,2758.19Z"/><path fill="#69a31a" d="M3687.64 3249q-5.54-.69-11.06-1.41c-4-42.69-10.1-110.21-11.86-121.94a63.11 63.11 0 0110.89-6.08C3677 3128.4 3684.88 3220.71 3687.64 3249zM3635.71 2848.79c-30.89 62.64 47.84 103 80.69 41.39C3747.29 2827.54 3668.57 2787.17 3635.71 2848.79zM3677.76 2970.8c-43.69 54.5 5.85 95.62 50.77 42.16C3772.21 2958.47 3722.67 2917.35 3677.76 2970.8z"/><path fill="#64ad00" d="M3634.29 2676.62c-22.82 6.53-38.82 29.14-46 51.15-10.16 28.05 3.59 59.56 36.52 43.57 18.49-9.1 33.13-30.1 38.09-50.34C3669.1 2699.92 3661.65 2668.74 3634.29 2676.62zM3567.74 2573.36c-32.66-5.45-58.57 25.55-60.37 56.24-3.79 44 36.73 50.5 63.83 24C3590.51 2634.55 3601.65 2583 3567.74 2573.36zM3465.44 2606.15c20.26-24.49 2.64-63-26.59-70.27-32.2-9.86-59.85 20.47-54.59 51.81C3388.75 2628.67 3442.12 2636.16 3465.44 2606.15zM3495.81 2689.64c-5.76-51-110.43-39.25-104.75 11.74S3501.49 2740.62 3495.81 2689.64zM3501.72 2831.58c16.73 4.57 38 1.75 52.33-8.07 19-11.58 22.93-36 2.28-48-23.87-14.21-59.7-10.78-78.31 10.59C3461.93 2805.26 3481.34 2827.37 3501.72 2831.58z"/><path fill="#69a31a" d="M3575.09 2940.29c30.26 2 54.23-22.31 30.12-48.05-19.75-21.8-72.95-36.36-90.42-6.23-6.69 14.28 5.65 32.15 19.07 40.83C3545 2934.7 3561.48 2940.08 3575.09 2940.29zM3646.11 3022.38c-9.65-19.2-32-31.62-52.71-35.54-27.54-6.26-57.56 10.49-39.41 40.71 10.39 17.25 32.57 29.44 52.57 31.92C3630.86 3063.81 3659.07 3048.47 3646.11 3022.38zM3702 3250.78q-6.95-.84-13.9-1.71c-74.59-114.54-166.58-216.86-286.7-282.83a45.3 45.3 0 004.85-9.91c54.91 27.89 103.73 66.53 147.43 109.69C3609.56 3122.17 3658.64 3184.53 3702 3250.78zM3646.81 3129.56c-8.6 69.31 79 81.59 89.81 12.59C3745.21 3072.84 3657.59 3060.56 3646.81 3129.56zM3788.41 3254.13q-1.15 3-2.42 5.84-32.22-3.09-64.41-6.86a88.55 88.55 0 015-22.12C3751.46 3165.75 3811.76 3188.31 3788.41 3254.13z"/><path fill="#69a31a" d="M3588.9 2967.41c-19.4 13.66-27.09 40.28-26.62 63.42-.39 29.83 22.95 55.07 48.79 29.15 14.48-14.67 21.41-39.31 19.45-60.05C3629.44 2978 3612.16 2951 3588.9 2967.41zM3492.13 2891.74c-32.64 5.58-46.93 43.37-38.55 73 10.89 42.83 51.29 35.63 68.17 1.69C3533.73 2942.06 3527.32 2889.69 3492.13 2891.74zM3406.28 2956.32c11.09-29.78-18.2-60.34-48.2-57.63-33.65 1.26-49.81 39-34.54 66.86C3341.24 3002.78 3394.11 2992.33 3406.28 2956.32zM3462.39 3025.19c-22.18-46.25-117.19-.78-95.08 45.5S3484.5 3071.48 3462.39 3025.19zM3514.6 3157.32c17.3-1.18 36.43-10.82 46.77-24.81 14.11-17.17 9.85-41.49-13.62-46.11-27.22-5.59-59.92 9.43-70.49 35.73C3468.37 3145.53 3494 3160 3514.6 3157.32zM3619.61 3235.89c29.24-8 43.89-38.88 12.66-55.27-25.82-14.11-80.85-10.38-87.45 23.82-1.63 15.68 15.9 28.5 31.43 32.3C3589.34 3240.51 3606.68 3240.17 3619.61 3235.89zM3811.32 3264.86s57.74-299.8 363.57-242c-42.59 85.37-116.34 249.35-116.34 249.35z"/><path fill="#bcd845" d="M3904.18,3267.62S3994,3088.2,4091.56,3060.2c-87.76,73.24-139.16,212.24-139.16,212.24Z"/><path fill="#fafcfd" d="M3579.25,1250.17H3726.7a0,0,0,0,1,0,0v337a73.72,73.72,0,0,1-73.72,73.72h0a73.72,73.72,0,0,1-73.72-73.72v-337a0,0,0,0,1,0,0Z"/><path fill="#00adff" d="M3603.25,1501.12v86.05a49.73,49.73,0,0,0,99.45,0v-86.05Z"/><path fill="#fafcfd" d="M3860.66,1250.17h147.45a0,0,0,0,1,0,0v337a73.72,73.72,0,0,1-73.72,73.72h0a73.72,73.72,0,0,1-73.72-73.72v-337a0,0,0,0,1,0,0Z"/><path fill="#00adff" d="M3884.66,1409.16v178a49.73,49.73,0,0,0,99.45,0v-178Z"/><path fill="#fff" d="M4474.23,1891.43h-1.31v-131.7H4314.16v131.7h-1.32l-100.38,208.85c-18.57,38.64,9.59,83.41,52.46,83.41h257.23c42.87,0,71-44.77,52.46-83.41Z" opacity=".8"/><path fill="#00adff" d="M4535.4,2074.11H4251.67l-17.58,36.56a34.21,34.21,0,0,0,30.83,49h257.23a34.21,34.21,0,0,0,30.83-49Z"/><path fill="#fafcfd" d="M3955.82,1891.43h-1.32v-131.7H3795.74v131.7h-1.31l-100.38,208.85c-18.57,38.64,9.59,83.41,52.46,83.41h257.23c42.87,0,71-44.77,52.46-83.41Z" opacity=".8"/><path fill="#00adff" d="M3984.79,2007.1H3765.46l-49.78,103.57a34.2,34.2,0,0,0,30.83,49h257.23a34.21,34.21,0,0,0,30.83-49Z"/><path fill="#87d121" d="M3874.65 2027.81s-78.19-30.84-58.26-86.53C3884.3 1946.86 3874.65 2027.81 3874.65 2027.81zM3882.61 2010.67s.71-61.84 59.17-64.88C3977.42 1993.56 3882.61 2010.67 3882.61 2010.67zM4401 2086.53s-78.2-30.84-58.26-86.53C4410.66 2005.58 4401 2086.53 4401 2086.53zM4409 2069.38s.71-61.83 59.16-64.87C4503.78 2052.27 4409 2069.38 4409 2069.38zM4409.68 2007.55s-40.18-12.92-23.07-61.76C4435.8 1953.64 4409.68 2007.55 4409.68 2007.55z"/><path fill="#eef6fd" d="M1976.51,1529.12s92.55,115,99.68,178.84c109.79-6,232.83,56.76,232.83,56.76s-86-89.82-190.05-81.26C2103.28,1596.49,1976.51,1529.12,1976.51,1529.12Z"/><path fill="#fff" d="M2275.54 1227.22H1830.48c46.07-99.38 110.09-188.59 187.09-266 27.17 32.72 49.51 80.55 57.84 150.41C2220.05 1093.08 2275.54 1227.22 2275.54 1227.22zM3332 1105H3726.7S3684 991 3603.25 1037.6c-50-85.55-132.68-48.48-132.68 0C3431.36 998.39 3323.21 1049.87 3332 1105zM2290.77 1008.37h242.47s-6.11-67.79-73.52-28.87c-19.25-89.83-104.79-51.33-104.79-4.28C2319.64 939.93 2277.94 964.53 2290.77 1008.37z"/><circle cx="2210.24" cy="2880.23" r="13.33" fill="#021a20"/><circle cx="2277.44" cy="2780.57" r="13.33" fill="#021a20"/><circle cx="2488.19" cy="2548.17" r="13.33" fill="#021a20"/><path fill="#fffad2" d="M2221,2924.45c-8.45,11.64-16.53,21.79-24.07,30.57-202.81-113.3-398.25-333-466.92-414.55q16.2-14.17,30.68-27.53c42.19,42.4,111,113.47,202.13,213.73C2048.81,2821.36,2148,2885.52,2221,2924.45Z"/><path fill="#a1b2bd" d="M1269,3038.86l41,112.78a172.62,172.62,0,0,0,162.27,113.72H1579a172.66,172.66,0,0,0,162-112.82l37.86-102.48Z"/><ellipse cx="1523.91" cy="3038.86" fill="#d1d6da" rx="254.93" ry="93.96"/><ellipse cx="1523.91" cy="3038.86" fill="#33210f" rx="209.48" ry="77.2"/><path fill="#69a31a" d="M1498.5 3024s-97.06-39-87-124.61C1470.86 2902.05 1498.5 3024 1498.5 3024zM1503.76 3045.4s34.45-92.56 82.45-103.49l3.81 10.93s-60.36 42.3-70.82 96.95C1504.47 3049.79 1503.76 3045.4 1503.76 3045.4z"/><path fill="#69a31a" d="M1546.89 2980.88s-67.37-109.07-43.13-164.67C1557.94 2854 1552.23 2944.53 1546.89 2980.88zM1576.47 2952.84s5-60.35 89.11-54.29C1652 2953.79 1588.13 2959.58 1576.47 2952.84zM1536.94 3008s64.48-41.3 96.56 0C1585.22 3035.89 1536.94 3008 1536.94 3008z"/><path fill="#a1b2bd" d="M1853.6,3131.52l27.69,76.26A116.76,116.76,0,0,0,1991,3284.67h72.23a116.73,116.73,0,0,0,109.5-76.28l25.6-69.3Z"/><ellipse cx="2025.98" cy="3131.52" fill="#d1d6da" rx="172.38" ry="63.53"/><ellipse cx="2025.98" cy="3131.52" fill="#33210f" rx="141.64" ry="52.2"/><path fill="#69a31a" d="M2008.79 3121.44s-65.62-26.38-58.79-84.26C1990.11 3039 2008.79 3121.44 2008.79 3121.44zM2012.35 3135.94s23.3-62.59 55.76-70l2.57 7.39s-40.82 28.6-47.88 65.56C2012.83 3138.91 2012.35 3135.94 2012.35 3135.94z"/><path fill="#69a31a" d="M2041.51 3092.31S1996 3018.56 2012.35 2981C2049 3006.51 2045.13 3067.73 2041.51 3092.31zM2061.52 3073.35s3.37-40.81 60.25-36.71C2112.61 3074 2069.4 3077.91 2061.52 3073.35zM2034.79 3110.66s43.6-27.93 65.29 0C2067.43 3129.51 2034.79 3110.66 2034.79 3110.66z"/><ellipse cx="1421.96" cy="1602.81" fill="#6abefd" rx="121.37" ry="73.69"/><path d="M1172.44,1501.8V2910q-4.25-4.46-8.4-9c-.54-.58-1.07-1.17-1.6-1.75V1501.8a5,5,0,1,1,10,0Z"/><path d="M1203.46 1915.17a5.51 5.51 0 00-7.78.23h0c-.37.39-5.81 6.28-12.64 20.21s-15 35.88-21 68.4a5.5 5.5 0 1010.82 2c5.81-31.63 13.72-52.6 20.07-65.55a106.71 106.71 0 017.91-13.76c1-1.4 1.73-2.39 2.22-3l.54-.64.11-.12h0A5.49 5.49 0 001203.46 1915.17zM1167.21 2200.72c-5.1-14.66-12.64-27.68-18.9-37.12a168.64 168.64 0 00-11.39-15.39 5.5 5.5 0 10-8.34 7.17h0a176.13 176.13 0 0117 24.62 145.71 145.71 0 0111.36 24.54 84.09 84.09 0 015 27.16 5.5 5.5 0 0011 0A95.11 95.11 0 001167.21 2200.72zM1172.87 1638.09a75.74 75.74 0 00-4.32-16.46 40.79 40.79 0 00-4.85-8.94 26.49 26.49 0 00-9.69-8.35 24.93 24.93 0 00-11-2.48 36.7 36.7 0 00-12.69 2.49 66.09 66.09 0 00-14.63 7.88 68.2 68.2 0 00-6.1 4.76 5.5 5.5 0 007.36 8.17h0a64 64 0 018.84-6.4 49.8 49.8 0 018.48-4.15 25.63 25.63 0 018.73-1.75 14 14 0 015.55 1.06 13.54 13.54 0 013.81 2.46 23.67 23.67 0 015.46 8 61.56 61.56 0 014.21 15.38 5.5 5.5 0 0010.87-1.72z"/><path d="M1161.43 1741.07c3-6.33 5.7-11.54 7.65-15.14 1-1.81 1.75-3.21 2.29-4.16.26-.47.47-.83.61-1.06a1.65 1.65 0 01.15-.26 105.34 105.34 0 007.7-15c3.84-9.12 7.75-21.54 7.76-35a59.55 59.55 0 00-3.62-20.88 55.51 55.51 0 00-13-20 5.5 5.5 0 10-7.77 7.78 44.46 44.46 0 0110.44 16 48.52 48.52 0 012.92 17c0 11.33-3.4 22.51-6.9 30.77a102.83 102.83 0 01-4.78 9.87c-.64 1.17-1.18 2.08-1.55 2.68l-.41.67-.1.15 0 0h0l-.13.22a324.77 324.77 0 00-17.68 36.09 272.83 272.83 0 00-12.16 35.22c-3.34 12.6-5.6 25.72-5.61 38.41a106 106 0 005.72 34.27 120.66 120.66 0 0019.16 35.16 97.51 97.51 0 0011.71 12.78 5.5 5.5 0 007.19-8.33h0a101.27 101.27 0 01-16.7-20.39 107.41 107.41 0 01-11.09-23.19 95.11 95.11 0 01-5-30.3c0-11.37 2.07-23.64 5.24-35.6C1148.24 1771 1155.43 1753.74 1161.43 1741.07zM1194.25 2818.58c-.06.08-5.73 7.78-14.7 18.19q-1.83 2.13-3.84 4.39-1.57 1.78-3.27 3.63c-3.1 3.41-6.46 6.95-10 10.51-5.45 5.48-11.36 11-17.49 16a24 24 0 00-3.79 3.86q-3.62-4.26-7.16-8.57a35.7 35.7 0 014-3.78 252.64 252.64 0 0022.85-21.68c.56-.59 1.1-1.17 1.63-1.75 3-3.25 5.83-6.4 8.37-9.34l1.63-1.91c7.75-9.08 12.69-15.73 13-16.09h0a5.5 5.5 0 118.85 6.52zM1171.62 2575.59a37 37 0 00-6.84-12.8 54.55 54.55 0 00-13.39-11.64 53.66 53.66 0 00-7.2-3.88 5.5 5.5 0 00-4.27 10.14h0a49.8 49.8 0 0111.53 7.4 34.51 34.51 0 017.37 8.66 23.53 23.53 0 012.27 5.3 21.49 21.49 0 01.85 6 5.5 5.5 0 0011 0A32.44 32.44 0 001171.62 2575.59zM1209.27 2341.44a5.5 5.5 0 00-7.51-2 77.18 77.18 0 00-21.78 18.69 86.3 86.3 0 00-15.11 29.19 73.39 73.39 0 00-2.92 14.22 5.5 5.5 0 0011 .83h0a75.74 75.74 0 0116-37.75 66.19 66.19 0 0118.37-15.63A5.5 5.5 0 001209.27 2341.44z"/><path fill="#85b51d" d="M1213.24 1484.26s-71.33-43.08-14.29-73.19 124.42-4.5 124.42-4.5-33.34 155.1-75 133.52S1213.24 1484.26 1213.24 1484.26zM1176.84 1504.29s29.59 19.73 9.39 39.92-69.39-20-69.39-20 27.55-70.8 55-55S1176.84 1504.29 1176.84 1504.29zM1149.91 1410c-24.78 3.32-28.32-71.65-28.32-71.65S1225.9 1328 1212 1364.69s-38.94 21.74-38.94 21.74S1174.69 1406.63 1149.91 1410z"/><path fill="#7cb720" d="M1090.31,2017.68s-50.75-101.06-124-33.27C899.77,2046,888.86,2167.32,887.42,2189,893.09,2181.51,1023.42,2009.82,1090.31,2017.68Z"/><path fill="#588a16" d="M1090.31,2017.68c-66.89-7.86-197.22,163.83-202.89,171.35-.14,2.18-.19,3.37-.19,3.37s261.68-6.73,284.24-74.71S1126,2000.82,1090.31,2017.68Z"/><path fill="#7cb720" d="M1113.23,2437.36s37.07-114.06-81.27-105.5S863.72,2530,863.72,2530,1006.3,2417.4,1113.23,2437.36Z"/><path fill="#588a16" d="M1113.23 2437.36c-106.93-20-249.51 92.68-249.51 92.68s276.6 67 309.39 0S1113.23 2437.36 1113.23 2437.36zM1204.51 2600.54s-233.83 25.66-154 131.17 357.86 132.59 385 105.5C1402 2735.91 1204.51 2600.54 1204.51 2600.54z"/><path fill="#7cb720" d="M1358.49 2526.4c-50.52-68.44-159.69-28.52-154 74.14 0 0 197.49 135.37 231 236.67C1462.56 2810.12 1393.12 2573.33 1358.49 2526.4zM1450.16 2422s-13.89-181.33-72.71-215.29-126.89-5.7-126.89 41.35C1250.56 2248 1401.69 2288 1450.16 2422z"/><path fill="#588a16" d="M1250.56,2248s-120,21.38-80,77S1450.16,2422,1450.16,2422C1401.69,2288,1250.56,2248,1250.56,2248Z"/><path fill="#7cb720" d="M1398.38,1974s-23.08-164.82-78.39-196.75-77,24.23-69.89,54.17C1250.1,1831.42,1341.35,1817.17,1398.38,1974Z"/><path fill="#588a16" d="M1250.1 1831.42s-96.95-4.27-61.31 71.29S1398.38 1974 1398.38 1974C1341.35 1817.17 1250.1 1831.42 1250.1 1831.42zM1109.94 1620.93s-18.45-108.87-66.57-60.75-81.27 175.36-81.27 175.36C1010.22 1620.93 1109.94 1620.93 1109.94 1620.93z"/><path fill="#69a31a" d="M1109.94,1620.93s-99.72,0-147.84,114.61c0,0,139,20.32,172.16-17.11S1150.58,1620.93,1109.94,1620.93Z"/><path fill="#fff" d="M4125.83 1473.9s96.94 17.33 136.09 163c-37.25 21.51-42.12 12.81-42.12 12.81l82.14 47.42 34.64-81.65-34.64 11s-47.92-162.54-146.3-181.78C4124.31 1462.73 4125.83 1473.9 4125.83 1473.9zM4101.82 2109.47s52.25 83.47-29.4 210.28c-41-13.16-37.77-22.61-37.77-22.61l20 92.71 83.77-29.16-31.38-18.31s88.26-144.65 36.47-230.47C4109.08 2100.84 4101.82 2109.47 4101.82 2109.47z"/><path fill="#87d121" d="M3647.72 1475.39S3631.5 1523 3653 1523s15.05-37.74 15.05-37.74zM3942.12 1385.34s-16.22 47.64 5.26 47.64 15.06-37.75 15.06-37.75z"/><circle cx="1674.83" cy="2014.33" r="212.92" fill="#a0d5fd" opacity=".42"/><path fill="#fff" d="M1674.83,1842.07A172.28,172.28,0,0,0,1541.4,2123.3H1370.55a7.16,7.16,0,0,0-6.16,3.37L1311,2216.21a6.32,6.32,0,0,0,2.74,8.92,7.4,7.4,0,0,0,3.41.83,7.15,7.15,0,0,0,6.17-3.38h0l51.43-86.16h178.6a172.26,172.26,0,1,0,121.53-294.35Z" opacity=".8"/><polygon fill="#87d121" points="1701.58 1984.29 1629.94 2010.51 1696.13 2076.71 1747.56 2045.6 1701.58 1984.29"/></svg>